<svg width="45" height="45" viewBox="0 0 45 45" fill="none" xmlns="http://www.w3.org/2000/svg">
<path d="M0.156249 22.5C0.156249 26.9192 1.46669 31.2391 3.92185 34.9135C6.37701 38.5879 9.86663 41.4518 13.9494 43.1429C18.0322 44.8341 22.5248 45.2765 26.8591 44.4144C31.1933 43.5523 35.1746 41.4242 38.2994 38.2994C41.4243 35.1746 43.5523 31.1933 44.4144 26.859C45.2766 22.5248 44.8341 18.0322 43.1429 13.9494C41.4518 9.86662 38.5879 6.377 34.9135 3.92184C31.2391 1.46668 26.9192 0.156241 22.5 0.156241C16.576 0.162498 10.8964 2.51857 6.70749 6.70748C2.51858 10.8964 0.162505 16.576 0.156249 22.5ZM23.716 12.6902L30.591 19.5652C30.9135 19.8877 31.0947 20.3251 31.0947 20.7812C31.0947 21.2373 30.9135 21.6747 30.591 21.9973C30.2685 22.3198 29.8311 22.5009 29.375 22.5009C28.9189 22.5009 28.4815 22.3198 28.159 21.9973L24.2188 18.0549L24.2188 31.0937C24.2188 31.5496 24.0377 31.9868 23.7153 32.3091C23.393 32.6314 22.9558 32.8125 22.5 32.8125C22.0442 32.8125 21.607 32.6314 21.2847 32.3091C20.9623 31.9868 20.7813 31.5496 20.7813 31.0937L20.7813 18.0549L16.841 21.9973C16.5185 22.3198 16.0811 22.5009 15.625 22.5009C15.1689 22.5009 14.7315 22.3198 14.409 21.9973C14.0865 21.6748 13.9053 21.2373 13.9053 20.7812C13.9053 20.3251 14.0865 19.8877 14.409 19.5652L21.284 12.6902C21.4436 12.5304 21.6332 12.4036 21.8418 12.3172C22.0505 12.2307 22.2741 12.1861 22.5 12.1861C22.7259 12.1861 22.9495 12.2307 23.1582 12.3172C23.3668 12.4036 23.5564 12.5304 23.716 12.6902Z" fill="#1E4918"/>
</svg>
