<svg width="53" height="53" viewBox="0 0 53 53" fill="none" xmlns="http://www.w3.org/2000/svg">
<rect width="52.701" height="52.701" rx="16" fill="#EBEBEB"/>
<g clip-path="url(#clip0_17_535)">
<path d="M34.25 32.1875V32.875C34.25 33.6043 33.9603 34.3038 33.4445 34.8195C32.9288 35.3353 32.2293 35.625 31.5 35.625H26.6875" stroke="#EE892F" stroke-width="2" stroke-linecap="round" stroke-linejoin="round"/>
<path d="M34.25 26H31.5C31.1353 26 30.7856 26.1449 30.5277 26.4027C30.2699 26.6606 30.125 27.0103 30.125 27.375V30.8125C30.125 31.1772 30.2699 31.5269 30.5277 31.7848C30.7856 32.0426 31.1353 32.1875 31.5 32.1875H34.25V26ZM34.25 26C34.25 24.9166 34.0366 23.8438 33.622 22.8429C33.2074 21.8419 32.5997 20.9325 31.8336 20.1664C31.0675 19.4003 30.1581 18.7926 29.1571 18.378C28.1562 17.9634 27.0834 17.75 26 17.75C24.9166 17.75 23.8438 17.9634 22.8429 18.378C21.8419 18.7926 20.9325 19.4003 20.1664 20.1664C19.4003 20.9325 18.7926 21.8419 18.378 22.8429C17.9634 23.8438 17.75 24.9166 17.75 26M17.75 26V30.8125C17.75 31.1772 17.8949 31.5269 18.1527 31.7848C18.4106 32.0426 18.7603 32.1875 19.125 32.1875H20.5C20.8647 32.1875 21.2144 32.0426 21.4723 31.7848C21.7301 31.5269 21.875 31.1772 21.875 30.8125V27.375C21.875 27.0103 21.7301 26.6606 21.4723 26.4027C21.2144 26.1449 20.8647 26 20.5 26H17.75Z" stroke="#E56A24" stroke-width="2" stroke-linecap="round" stroke-linejoin="round"/>
</g>
<defs>
<clipPath id="clip0_17_535">
<rect width="22" height="22" fill="white" transform="translate(15 15)"/>
</clipPath>
</defs>
</svg>
