<svg width="53" height="53" viewBox="0 0 53 53" fill="none" xmlns="http://www.w3.org/2000/svg">
<rect width="52.701" height="52.701" rx="16" fill="#EBEBEB"/>
<path d="M34.1364 22.7725H16.8636C16.3867 22.7725 16 23.1591 16 23.6361V35.727C16 36.204 16.3867 36.5906 16.8636 36.5906H34.1364C34.6133 36.5906 35 36.204 35 35.727V23.6361C35 23.1591 34.6133 22.7725 34.1364 22.7725Z" stroke="#E56A25" stroke-width="2" stroke-linecap="round" stroke-linejoin="round"/>
<path d="M26.2272 29.6816C26.2272 30.0833 25.9016 30.4089 25.4999 30.4089C25.0983 30.4089 24.7727 30.0833 24.7727 29.6816C24.7727 29.28 25.0983 28.9543 25.4999 28.9543C25.9016 28.9543 26.2272 29.28 26.2272 29.6816Z" fill="#EE892F" stroke="#EE892F" stroke-width="2"/>
<path d="M21.1819 22.7727V19.3182C21.1819 18.1729 21.6368 17.0746 22.4466 16.2648C23.2564 15.4549 24.3548 15 25.5 15C26.6453 15 27.7436 15.4549 28.5535 16.2648C29.3633 17.0746 29.8182 18.1729 29.8182 19.3182V22.7727" stroke="#E56A25" stroke-width="2" stroke-linecap="round" stroke-linejoin="round"/>
</svg>
