<svg width="35" height="47" viewBox="0 0 35 47" fill="none" xmlns="http://www.w3.org/2000/svg">
<path d="M12 42.7099C12.259 41.7774 12.4851 40.8325 12.7812 39.9122C15.3755 31.8971 18.8991 24.2846 22.842 16.857C25.535 11.7792 28.4213 6.80831 31.5995 2.01403C31.879 1.59089 32.1011 0.711732 32.7178 1.02806C33.3633 1.36083 32.726 2.02225 32.5328 2.47826C30.8018 6.52484 28.9722 10.5304 26.9576 14.4496C22.5542 23.0193 18.5373 31.7657 14.8862 40.6764C14.5203 41.5719 14.0516 42.4265 13.5953 43.281C13.3691 43.7041 13.0114 43.9917 12.4893 43.774C12.0247 43.5768 12.0082 43.1577 12 42.7099Z" fill="#E0BB76"/>
<path d="M34.9973 34.3974C34.7428 34.6911 34.443 35.0676 34.1145 35.4192C31.4989 38.2074 28.5754 40.6647 25.8037 43.2834C24.7156 44.3134 23.6357 45.3476 22.5311 46.3529C22.1821 46.6673 21.7633 47.0892 21.2623 46.6549C20.8107 46.2577 21.0365 45.7572 21.2418 45.3104C21.5785 44.5864 22.0794 43.9742 22.6297 43.4116C26.0501 39.9325 29.7743 36.8216 33.9092 34.2278C34.1268 34.0913 34.365 33.9506 34.6073 33.8886C34.8742 33.8224 35.022 33.992 34.9973 34.3974Z" fill="#E0BB76"/>
<path d="M0.848449 27.8945C1.25476 27.961 1.37976 28.252 1.46906 28.5346C1.74142 29.3992 2.06291 30.2596 2.22811 31.145C2.86661 34.6241 4.15252 37.9079 5.60811 41.1459C5.84029 41.6655 6.39393 42.2932 5.54112 42.7172C4.76868 43.1037 4.20163 42.5841 3.81764 42.0438C2.00486 39.4999 0.85738 36.6941 0.263537 33.7013C-0.0713361 32.0221 -0.107074 30.3303 0.272449 28.651C0.348354 28.3185 0.433183 27.9818 0.852891 27.8903L0.848449 27.8945Z" fill="#E0BB76"/>
</svg>
