<svg width="17" height="17" viewBox="0 0 17 17" fill="none" xmlns="http://www.w3.org/2000/svg">
<path d="M11.3333 8.45503C11.3333 9.98413 10.0741 11.2434 8.54497 11.2434C7.01587 11.2434 5.75661 9.98413 5.75661 8.45503C5.75661 6.92593 7.01587 5.66667 8.54497 5.66667C10.0741 5.66667 11.3333 6.92593 11.3333 8.45503ZM12.8624 8.45503C12.8624 6.02645 10.8836 4.13757 8.54497 4.13757C6.1164 4.13757 4.22751 6.1164 4.22751 8.45503C4.22751 10.8836 6.20635 12.7725 8.54497 12.7725C10.8836 12.8624 12.8624 10.8836 12.8624 8.45503ZM14.0317 3.95767C14.0317 3.41799 13.582 2.96825 13.0423 2.96825C12.5026 2.96825 12.0529 3.41799 12.0529 3.95767C12.0529 4.49735 12.5026 4.94709 13.0423 4.94709C13.582 4.94709 14.0317 4.49735 14.0317 3.95767ZM8.45503 1.5291C9.71429 1.5291 12.3228 1.43915 13.4921 1.88889C13.8519 2.06878 14.1217 2.24868 14.4815 2.51852C14.7513 2.78836 14.9312 3.14815 15.1111 3.50794C15.5608 4.5873 15.4709 7.28571 15.4709 8.54497C15.4709 9.80423 15.5608 12.4127 15.1111 13.582C14.9312 13.9418 14.7513 14.2116 14.4815 14.5714C14.2116 14.8413 13.8519 15.0212 13.4921 15.2011C12.4127 15.6508 9.71429 15.5608 8.45503 15.5608C7.19577 15.5608 4.5873 15.6508 3.41799 15.2011C3.0582 15.0212 2.78836 14.8413 2.42857 14.5714C2.15873 14.3016 1.97884 13.9418 1.79894 13.582C1.34921 12.5026 1.43915 9.80423 1.43915 8.54497C1.43915 7.28571 1.34921 4.67725 1.79894 3.50794C1.97884 3.14815 2.15873 2.87831 2.42857 2.51852C2.69841 2.24868 3.0582 2.06878 3.41799 1.88889C4.5873 1.43915 7.28571 1.5291 8.45503 1.5291ZM17 8.45503C17 7.28571 17 6.1164 16.9101 4.94709C16.8201 3.59788 16.5503 2.42857 15.5608 1.34921C14.5714 0.359788 13.4021 0.0899471 11.963 0C10.7937 0 9.62434 0 8.45503 0C7.28571 0 6.1164 0 4.94709 0.0899471C3.59788 0.0899471 2.42857 0.449735 1.43915 1.43915C0.449735 2.42857 0.0899471 3.59788 0.0899471 4.94709C0 6.1164 0 7.28571 0 8.45503C0 9.62434 0 10.7937 0.0899471 11.963C0.179894 13.3122 0.449735 14.4815 1.43915 15.5608C2.42857 16.5503 3.59788 16.8201 5.03704 16.9101C6.20635 17 7.37566 17 8.54497 17C9.71429 17 10.8836 17 12.0529 16.9101C13.4021 16.8201 14.5714 16.5503 15.6508 15.5608C16.6402 14.5714 16.9101 13.4021 17 11.963C17 10.7937 17 9.62434 17 8.45503Z" fill="#E56A24"/>
</svg>
