<svg width="53" height="53" viewBox="0 0 53 53" fill="none" xmlns="http://www.w3.org/2000/svg">
<rect width="52.701" height="52.701" rx="16" fill="#EBEBEB"/>
<path d="M36.125 22.125H16.875C16.3918 22.125 16 22.5168 16 23V26.5C16 26.9833 16.3918 27.375 16.875 27.375H36.125C36.6082 27.375 37 26.9833 37 26.5V23C37 22.5168 36.6082 22.125 36.125 22.125Z" stroke="#E56A25" stroke-width="2" stroke-linecap="round" stroke-linejoin="round"/>
<path d="M35.2499 27.375V35.25C35.2499 35.4821 35.1577 35.7047 34.9936 35.8687C34.8295 36.0328 34.6069 36.125 34.3749 36.125H18.6249C18.3928 36.125 18.1703 36.0328 18.0062 35.8687C17.8421 35.7047 17.7499 35.4821 17.7499 35.25V27.375" stroke="#E56A25" stroke-width="2" stroke-linecap="round" stroke-linejoin="round"/>
<path d="M26.5 22.125V36.125" stroke="#E56A25" stroke-width="2" stroke-linecap="round" stroke-linejoin="round"/>
<path d="M31.8364 16.7889C32.858 17.8105 32.9181 19.5298 31.8364 20.488C29.9869 22.1253 26.5 22.1253 26.5 22.1253C26.5 22.1253 26.5 18.6384 28.1406 16.7889C29.0955 15.7072 30.8148 15.7673 31.8364 16.7889Z" stroke="#E56A25" stroke-width="2" stroke-linecap="round" stroke-linejoin="round"/>
<path d="M21.1634 16.7889C20.1418 17.8105 20.0817 19.5298 21.1634 20.488C23.0129 22.1253 26.4998 22.1253 26.4998 22.1253C26.4998 22.1253 26.4998 18.6384 24.8592 16.7889C23.9043 15.7072 22.185 15.7673 21.1634 16.7889Z" stroke="#E56A25" stroke-width="2" stroke-linecap="round" stroke-linejoin="round"/>
</svg>
