<svg width="18" height="18" viewBox="0 0 18 18" fill="none" xmlns="http://www.w3.org/2000/svg">
<path d="M17.8705 17.8756V17.8748H17.875V11.3192C17.875 8.11208 17.1846 5.6416 13.4353 5.6416C11.6329 5.6416 10.4233 6.63069 9.92955 7.56838H9.87741V5.94101H6.32251V17.8748H10.0241V11.9656C10.0241 10.4098 10.3191 8.90529 12.2459 8.90529C14.1443 8.90529 14.1726 10.6809 14.1726 12.0654V17.8756H17.8705Z" fill="#E56A24"/>
<path d="M0.294922 5.94141H4.00102V17.8752H0.294922V5.94141Z" fill="#E56A24"/>
<path d="M2.1465 0C0.961529 0 0 0.961529 0 2.1465C0 3.33146 0.961529 4.3131 2.1465 4.3131C3.33146 4.3131 4.29299 3.33146 4.29299 2.1465C4.29225 0.961529 3.33072 0 2.1465 0V0Z" fill="#E56A24"/>
</svg>
