<svg width="53" height="53" viewBox="0 0 53 53" fill="none" xmlns="http://www.w3.org/2000/svg">
<rect width="52.701" height="52.701" rx="16" fill="#EBEBEB"/>
<path d="M16.2925 27.2925C16.1053 27.1051 16.0001 26.8511 16 26.5863V15H27.5863C27.8511 15.0001 28.1051 15.1053 28.2925 15.2925L40.7075 27.7075C40.8949 27.895 41.0002 28.1493 41.0002 28.4144C41.0002 28.6795 40.8949 28.9337 40.7075 29.1213L30.125 39.7075C29.9375 39.8949 29.6832 40.0002 29.4181 40.0002C29.153 40.0002 28.8988 39.8949 28.7113 39.7075L16.2925 27.2925Z" stroke="#E56A25" stroke-width="2" stroke-linecap="round" stroke-linejoin="round"/>
<path d="M23 21C23 21.5523 22.5523 22 22 22C21.4477 22 21 21.5523 21 21C21 20.4477 21.4477 20 22 20C22.5523 20 23 20.4477 23 21Z" fill="black" stroke="#EE892F" stroke-width="2"/>
</svg>
