<svg width="22" height="23" viewBox="0 0 22 23" fill="none" xmlns="http://www.w3.org/2000/svg">
<path d="M13.4985 16.4975C11.5101 16.4953 9.60386 15.7045 8.19788 14.2985C6.79189 12.8925 6.00105 10.9862 5.99884 8.99787C5.99868 8.4199 6.19879 7.85972 6.56513 7.41267C6.93147 6.96563 7.44139 6.65933 8.00812 6.5459L9.2039 8.94162L7.94146 10.8311L8.11333 11.2478C8.70954 12.6648 9.83681 13.792 11.2538 14.3883L11.6705 14.5601L13.5631 13.2977L15.9588 14.4935C15.844 15.0606 15.5361 15.5704 15.0874 15.9359C14.6387 16.3014 14.0772 16.4999 13.4985 16.4975Z" fill="white" stroke="white" stroke-linecap="round" stroke-linejoin="round"/>
<path d="M5.99153 20.1541C8.09199 21.3698 10.5629 21.7801 12.9435 21.3085C15.3241 20.8369 17.452 19.5157 18.9304 17.5911C20.4088 15.6665 21.1368 13.2699 20.9788 10.8482C20.8207 8.42646 19.7873 6.14488 18.0712 4.42881C16.3551 2.71275 14.0735 1.67934 11.6518 1.52125C9.23008 1.36316 6.83351 2.09119 4.90892 3.5696C2.98433 5.04801 1.66307 7.17588 1.1915 9.55651C0.719919 11.9371 1.13021 14.408 2.34586 16.5085L1.0428 20.3989C0.993835 20.5457 0.986729 20.7033 1.02228 20.8539C1.05783 21.0046 1.13463 21.1423 1.24407 21.2518C1.35351 21.3612 1.49127 21.438 1.6419 21.4736C1.79254 21.5091 1.95009 21.502 2.09692 21.453L5.99153 20.1541Z" stroke="white" stroke-width="2" stroke-linecap="round" stroke-linejoin="round"/>
</svg>
