<svg width="104" height="70" viewBox="0 0 104 70" fill="none" xmlns="http://www.w3.org/2000/svg">
<path d="M54.1192 67.5657C54.1192 67.6976 54.1314 67.8236 54.1682 67.9435C54.3642 68.669 55.0012 69.1666 55.779 69.1666C56.9183 69.1666 57.5736 68.2792 57.5736 66.9662C57.5736 65.815 56.9611 64.8317 55.8035 64.8317C55.0808 64.8317 54.3948 65.3293 54.1743 66.1088C54.1376 66.2407 54.1131 66.3846 54.1131 66.5465V67.5657H54.1192ZM53.0596 61.4561H54.1253V65.0595H54.1498C54.5296 64.418 55.2155 64.0163 56.1649 64.0163C57.6471 64.0163 58.67 65.2034 58.67 66.9302C58.67 68.9807 57.3225 70 56.0056 70C55.1482 70 54.4622 69.6822 54.0089 68.9328H53.9844L53.9232 69.8681H53.0045C53.029 69.4784 53.0535 68.8968 53.0535 68.3871V61.4561H53.0596Z" fill="#58595B"/>
<path d="M82.6242 64.1302H83.7022V69.8621H82.6242V64.1302ZM84.8108 61.66L83.3164 63.3508H82.5569L83.6348 61.66H84.8108Z" fill="#58595B"/>
<path d="M63.772 66.4445C63.7842 65.791 63.4902 64.7597 62.2775 64.7597C61.175 64.7597 60.7096 65.7191 60.6238 66.4445H63.7659H63.772ZM60.6116 67.188C60.6361 68.597 61.5548 69.1786 62.6389 69.1786C63.4106 69.1786 63.8884 69.0467 64.2804 68.8848L64.4763 69.6343C64.0966 69.8021 63.4351 70 62.498 70C60.6789 70 59.5887 68.8248 59.5887 67.0981C59.5887 65.3713 60.6422 64.0163 62.3633 64.0163C64.3049 64.0163 64.8071 65.6531 64.8071 66.7084C64.8071 66.9182 64.7948 67.0741 64.7703 67.194H60.6116V67.188Z" fill="#58595B"/>
<path d="M66.1422 65.683C66.1422 65.0775 66.13 64.6038 66.0932 64.1302H67.0487L67.11 65.0775H67.1344C67.4284 64.5439 68.1144 64.0102 69.0944 64.0102C69.9151 64.0102 71.183 64.4839 71.183 66.4505V69.8621H70.105V66.5584C70.105 65.6351 69.7498 64.8616 68.733 64.8616C68.0348 64.8616 67.4836 65.3473 67.2876 65.9289C67.2386 66.0608 67.2141 66.2347 67.2141 66.4145V69.8621H66.1361V65.677L66.1422 65.683Z" fill="#58595B"/>
<path d="M76.6832 66.4445C76.6954 65.791 76.4015 64.7597 75.1887 64.7597C74.0863 64.7597 73.6208 65.7191 73.535 66.4445H76.6771H76.6832ZM73.5289 67.188C73.5534 68.597 74.4721 69.1786 75.5562 69.1786C76.3279 69.1786 76.8057 69.0467 77.1977 68.8848L77.3937 69.6343C77.0139 69.8021 76.3525 70 75.4153 70C73.5963 70 72.506 68.8248 72.506 67.0981C72.506 65.3713 73.5595 64.0163 75.2806 64.0163C77.2222 64.0163 77.7244 65.6531 77.7244 66.7084C77.7244 66.9182 77.7122 67.0741 77.6877 67.194H73.5289V67.188Z" fill="#58595B"/>
<path d="M79.1638 69.8681V64.9276H78.343V64.1362H79.1638V63.8604C79.1638 63.0569 79.3598 62.3195 79.8498 61.8578C80.254 61.4801 80.793 61.3242 81.2952 61.3242C81.6872 61.3242 82.0057 61.4081 82.214 61.4921L82.067 62.2955C81.9077 62.2235 81.6995 62.1636 81.381 62.1636C80.4622 62.1636 80.2295 62.931 80.2295 63.8244V64.1302H81.6627V64.9216H80.2295V69.8621H79.1638V69.8681Z" fill="#58595B"/>
<path d="M89.7046 69.6642C89.4228 69.7961 88.7981 69.994 88.008 69.994C86.2195 69.994 85.062 68.8188 85.062 67.0681C85.062 65.3173 86.3114 64.0102 88.2408 64.0102C88.8777 64.0102 89.4412 64.1661 89.7291 64.316L89.4841 65.1075C89.2269 64.9756 88.8226 64.8377 88.2346 64.8377C86.8749 64.8377 86.1399 65.8209 86.1399 67.0081C86.1399 68.3332 87.0219 69.1546 88.1917 69.1546C88.8042 69.1546 89.2085 69.0107 89.5147 68.8848L89.6985 69.6642H89.7046Z" fill="#58595B"/>
<path d="M90.9602 64.1302H92.0382V69.8621H90.9602V64.1302ZM92.1607 62.5233C92.1607 62.8771 91.9034 63.1649 91.4747 63.1649C91.0827 63.1649 90.8255 62.8831 90.8255 62.5233C90.8255 62.1636 91.0949 61.8698 91.4992 61.8698C91.9034 61.8698 92.1607 62.1516 92.1607 62.5233Z" fill="#58595B"/>
<path d="M94.4943 67.0141C94.4943 68.2672 95.2293 69.2206 96.2766 69.2206C97.324 69.2206 98.0712 68.2852 98.0712 66.9962C98.0712 66.0248 97.569 64.8077 96.3011 64.8077C95.0333 64.8077 94.4943 65.9469 94.4943 67.0201M99.1798 66.9542C99.1798 69.0767 97.6486 70 96.2337 70C94.6413 70 93.3979 68.8608 93.3979 67.0501C93.3979 65.1435 94.7086 64.0163 96.3317 64.0163C97.9548 64.0163 99.1798 65.2094 99.1798 66.9542Z" fill="#58595B"/>
<path d="M100.392 68.8128C100.723 69.0047 101.287 69.2145 101.826 69.2145C102.597 69.2145 102.965 68.8488 102.965 68.3631C102.965 67.8775 102.659 67.6077 101.875 67.3199C100.797 66.9421 100.294 66.3845 100.294 65.695C100.294 64.7717 101.078 64.0102 102.334 64.0102C102.934 64.0102 103.461 64.1661 103.78 64.364L103.522 65.1195C103.29 64.9756 102.861 64.7777 102.31 64.7777C101.673 64.7777 101.33 65.1314 101.33 65.5571C101.33 66.0308 101.673 66.2466 102.444 66.5404C103.461 66.9062 104 67.4038 104 68.2612C104 69.2805 103.179 69.988 101.801 69.988C101.152 69.988 100.552 69.8201 100.135 69.5862L100.392 68.8068V68.8128Z" fill="#58595B"/>
<path d="M76.6403 0L59.6867 47.1323H59.509L46.5121 11.9255C43.6702 5.29422 38.2374 0.803422 28.4377 0.107919L28.1559 0.0839397V4.49679C32.0636 5.54004 34.6911 8.66381 36.302 12.9028L36.3326 12.8908L53.0351 57.8887H60.7585L82.4221 0.00599242H76.6525L76.6403 0Z" fill="#E66A1F"/>
<path d="M32.5658 57.6848C39.9953 55.6463 44.0193 50.6878 46.0344 44.0445L38.0231 22.6698C38.1762 25.1041 38.1946 27.4784 38.1946 29.5649C38.1946 39.3679 38.0231 54.7409 24.1564 54.7409C10.2898 54.7409 9.59152 39.2779 9.59152 29.5649C9.59152 19.8518 10.1121 3.96916 24.1564 3.96916C24.9649 3.96916 25.7183 4.02912 26.4287 4.13704V0.0779381C25.6938 0.0359681 24.9404 0 24.1564 0C4.27515 0 0 12.7529 0 29.5709C0 44.4403 3.76679 56 18.4358 58.2964C15.3856 59.5075 13.2358 62.4034 13.2358 65.791H21.5962H34.9545C39.5727 65.791 43.315 62.1636 43.315 57.6908H32.5597L32.5658 57.6848Z" fill="#006DAD"/>
</svg>
