<svg width="51" height="36" viewBox="0 0 51 36" fill="none" xmlns="http://www.w3.org/2000/svg">
<rect width="37" height="26" rx="12" transform="matrix(-1 0 0 1 50.1724 0)" fill="#E56A24"/>
<path d="M26.5317 14.0404H27.8867L28.8405 15.2839L29.2907 15.8366L30.8106 17.8201H29.4021L28.3859 16.4963L28.0382 16.0149L26.5317 14.0404ZM31.1048 12.4357C31.1048 13.4104 30.9265 14.2484 30.57 14.9496C30.2134 15.648 29.7246 16.1858 29.1035 16.5632C28.4854 16.9376 27.7827 17.1248 26.9952 17.1248C26.2048 17.1248 25.499 16.9376 24.878 16.5632C24.2599 16.1858 23.7726 15.6465 23.416 14.9452C23.0594 14.2439 22.8811 13.4074 22.8811 12.4357C22.8811 11.4611 23.0594 10.6246 23.416 9.92628C23.7726 9.225 24.2599 8.68716 24.878 8.31274C25.499 7.93536 26.2048 7.74667 26.9952 7.74667C27.7827 7.74667 28.4854 7.93536 29.1035 8.31274C29.7246 8.68716 30.2134 9.225 30.57 9.92628C30.9265 10.6246 31.1048 11.4611 31.1048 12.4357ZM29.7409 12.4357C29.7409 11.6929 29.6206 11.0673 29.3799 10.5592C29.1421 10.0481 28.8153 9.66182 28.3993 9.40032C27.9862 9.13586 27.5182 9.00362 26.9952 9.00362C26.4693 9.00362 25.9997 9.13586 25.5867 9.40032C25.1737 9.66182 24.8468 10.0481 24.6061 10.5592C24.3684 11.0673 24.2495 11.6929 24.2495 12.4357C24.2495 13.1786 24.3684 13.8056 24.6061 14.3167C24.8468 14.8248 25.1737 15.2111 25.5867 15.4756C25.9997 15.7371 26.4693 15.8678 26.9952 15.8678C27.5182 15.8678 27.9862 15.7371 28.3993 15.4756C28.8153 15.2111 29.1421 14.8248 29.3799 14.3167C29.6206 13.8056 29.7409 13.1786 29.7409 12.4357ZM33.1663 7.87147L35.707 15.3062H35.8095L38.3502 7.87147H39.8389L36.5539 17H34.9626L31.6776 7.87147H33.1663Z" fill="white"/>
<path d="M17.1195 26.2582C18.4399 26.6984 18.4399 28.566 17.1195 29.0061L4.67894 33.153C3.54673 33.5304 2.4696 32.4533 2.847 31.3211L6.99386 18.8805C7.43399 17.5601 9.30164 17.5601 9.74177 18.8805L10.3649 20.7499C11.1337 23.0564 12.9436 24.8663 15.2501 25.6351L17.1195 26.2582Z" fill="#E56A24"/>
<path d="M16.9772 26.6851C17.8873 26.9885 17.8873 28.2759 16.9772 28.5792L4.53663 32.7261C3.75623 32.9862 3.01377 32.2438 3.27391 31.4634L7.42077 19.0228C7.72414 18.1127 9.01148 18.1127 9.31486 19.0228L9.938 20.8922C10.7516 23.3331 12.6669 25.2484 15.1078 26.062L16.9772 26.6851Z" stroke="white" stroke-opacity="0.1" stroke-width="0.9"/>
</svg>
