<svg width="22" height="23" viewBox="0 0 22 23" fill="none" xmlns="http://www.w3.org/2000/svg">
<path d="M13.4984 16.4974C11.5101 16.4952 9.6038 15.7044 8.19781 14.2984C6.79183 12.8924 6.00099 10.9861 5.99878 8.99778C5.99862 8.4198 6.19873 7.85963 6.56507 7.41258C6.9314 6.96553 7.44133 6.65923 8.00806 6.54581L9.20384 8.94153L7.9414 10.831L8.11327 11.2477C8.70947 12.6647 9.83675 13.792 11.2537 14.3882L11.6704 14.56L13.563 13.2976L15.9587 14.4934C15.844 15.0605 15.536 15.5703 15.0873 15.9358C14.6387 16.3013 14.0771 16.4998 13.4984 16.4974Z" fill="white" stroke="white" stroke-linecap="round" stroke-linejoin="round"/>
<path d="M5.99153 20.1541C8.09199 21.3698 10.5629 21.7801 12.9435 21.3085C15.3241 20.8369 17.452 19.5157 18.9304 17.5911C20.4088 15.6665 21.1368 13.2699 20.9788 10.8482C20.8207 8.42646 19.7873 6.14488 18.0712 4.42881C16.3551 2.71275 14.0735 1.67934 11.6518 1.52125C9.23008 1.36316 6.83351 2.09119 4.90892 3.5696C2.98433 5.04801 1.66307 7.17588 1.1915 9.55651C0.719919 11.9371 1.13021 14.408 2.34586 16.5085L1.0428 20.3989C0.993835 20.5457 0.986729 20.7033 1.02228 20.8539C1.05783 21.0046 1.13463 21.1423 1.24407 21.2518C1.35351 21.3612 1.49127 21.438 1.6419 21.4736C1.79254 21.5091 1.95009 21.502 2.09692 21.453L5.99153 20.1541Z" stroke="white" stroke-width="2" stroke-linecap="round" stroke-linejoin="round"/>
</svg>
